<svg id="ICON" xmlns="http://www.w3.org/2000/svg" viewBox="0 0 512 512"><defs><style>.cls-1{fill:#c6c8ca;}.cls-2{fill:#e4b790;}.cls-3{fill:#cba383;}.cls-4{fill:#2a3342;}.cls-5{fill:#a8a9aa;}.cls-6{fill:#3f4d5f;}.cls-7{fill:#1d222a;}.cls-8{fill:#bbbec0;}.cls-9{fill:#cbcccd;}.cls-10{fill:#b2b2b2;}</style></defs><title>Cooking</title><rect class="cls-1" x="268.45" y="377.31" width="149.67" height="54.17" rx="24.81" transform="translate(855.03 264.8) rotate(115.07)"/><path class="cls-2" d="M419.66,335.07v6.67a16.87,16.87,0,0,1-16.89,16.88H360.18a16.9,16.9,0,0,1-16.91-16.88v-6.67a16.9,16.9,0,0,1,16.91-16.88h42.59A16.87,16.87,0,0,1,419.66,335.07Z"/><path class="cls-3" d="M419.66,335.07v3.33H343.27v-3.33a16.9,16.9,0,0,1,16.91-16.88h42.59A16.87,16.87,0,0,1,419.66,335.07Z"/><rect class="cls-3" x="137.78" y="262.2" width="50.15" height="73.19"/><ellipse class="cls-3" cx="268.11" cy="214.49" rx="15.45" ry="16.54"/><ellipse class="cls-3" cx="63.16" cy="214.49" rx="15.45" ry="16.54"/><circle class="cls-2" cx="165.64" cy="209.88" r="99.48"/><circle class="cls-4" cx="205.43" cy="211.92" r="11.94"/><circle class="cls-4" cx="125.85" cy="211.92" r="11.94"/><ellipse class="cls-4" cx="85.72" cy="180.53" rx="25.72" ry="20.32" transform="translate(-113.68 193.88) rotate(-68.43)"/><ellipse class="cls-4" cx="248.89" cy="180.53" rx="20.32" ry="25.72" transform="translate(-45.08 90.43) rotate(-18.92)"/><path class="cls-4" d="M232.63,168c0,6.92-28.62,28-63.91,28s-63.9-21.08-63.9-28,28.61-12.53,63.9-12.53S232.63,161.08,232.63,168Z"/><rect class="cls-5" x="371.91" y="205.85" width="19.45" height="19.6" rx="9.72"/><path class="cls-4" d="M482.47,303.37a15.19,15.19,0,0,1-15.17,15.17H296a15.19,15.19,0,0,1-15.18-15.17Z"/><path class="cls-6" d="M482.47,303.37a15.19,15.19,0,0,1-15.17,15.17h-8.85L466,303.37Z"/><path class="cls-7" d="M319.74,318.54H296a15.19,15.19,0,0,1-15.18-15.17H309Z"/><path class="cls-8" d="M466.35,303.21H296.92a77.72,77.72,0,0,1,77.76-77.76h13.91a77.74,77.74,0,0,1,77.76,77.76Z"/><path class="cls-9" d="M466.35,303.21H413.47c-3.31-39.7-20.81-66.08-30.39-77.76h5.51a77.74,77.74,0,0,1,77.76,77.76Z"/><path class="cls-5" d="M331.28,238.67a220.79,220.79,0,0,0-13,64.54H296.92A77.71,77.71,0,0,1,331.28,238.67Z"/><rect class="cls-1" x="70.18" y="110.41" width="194.93" height="56.09"/><rect class="cls-1" x="29.53" y="26.32" width="272.22" height="86.12" rx="43.06"/><rect class="cls-10" x="88.03" y="103.77" width="14.22" height="40.29" rx="7.11"/><rect class="cls-10" x="123.28" y="103.77" width="14.22" height="40.29" rx="7.11"/><rect class="cls-10" x="158.53" y="103.77" width="14.22" height="40.29" rx="7.11"/><rect class="cls-10" x="193.77" y="103.77" width="14.22" height="40.29" rx="7.11"/><rect class="cls-10" x="229.02" y="103.77" width="14.22" height="40.29" rx="7.11"/><path class="cls-1" d="M124.12,335.39H201.6a60.74,60.74,0,0,1,60.74,60.74v87.63a0,0,0,0,1,0,0h-199a0,0,0,0,1,0,0V396.12A60.74,60.74,0,0,1,124.12,335.39Z"/><rect class="cls-1" x="125.85" y="318.18" width="75.29" height="27.48"/><rect class="cls-1" x="213.32" y="382.61" width="149.67" height="54.17" rx="24.81" transform="translate(396.45 -79.34) rotate(47.61)"/><rect class="cls-1" x="-5.58" y="385.8" width="145.49" height="54.17" rx="24.46" transform="translate(481.37 354.4) rotate(91.2)"/><rect class="cls-4" x="125.85" y="318.18" width="8.17" height="165.57"/><circle class="cls-4" cx="154.04" cy="364.98" r="8.48"/><circle class="cls-4" cx="154.04" cy="413.69" r="8.48"/><circle class="cls-4" cx="154.04" cy="458.21" r="8.48"/></svg>